<?xml version="1.0" encoding="utf-8"?>
<!-- Generator: Adobe Illustrator 17.1.0, SVG Export Plug-In . SVG Version: 6.00 Build 0)  -->
<!DOCTYPE svg PUBLIC "-//W3C//DTD SVG 1.1//EN" "http://www.w3.org/Graphics/SVG/1.1/DTD/svg11.dtd">
<svg version="1.1" id="Layer_1" xmlns="http://www.w3.org/2000/svg" xmlns:xlink="http://www.w3.org/1999/xlink" x="0px" y="0px"
	 viewBox="0 0 26 13" enable-background="new 0 0 26 13" xml:space="preserve">
<g>
	<path fill="#454546" d="M17.4,7.8c0.6-0.2,1.1-0.8,1.4-1.3c0.3-0.7,0.5-1.8,0-2.6c-0.2-0.3-0.5-0.5-0.8-0.5c-0.4-0.1-0.7,0-1,0.3
		c-0.5,0.4-0.9,1.2-0.9,1.9C16,6.3,16,7,16.4,7.5C16.7,7.7,17,7.9,17.4,7.8z M17,4.5C17,4.4,17,4,17.2,4h0.1c0,0,0.2,0,0.4,0.4
		c0.1,0.1,0.1,0.3,0.2,0.5c0.1,0.5,0.2,1.2,0.2,1.3c0,0.3,0,0.2,0,0.3c0,0.2-0.1,0.4-0.3,0.4h-0.1c-0.3,0-0.5-0.7-0.6-0.9
		c-0.1-0.2-0.2-1-0.2-1.2V4.5z"/>
	<path fill="#454546" d="M22.7,0.6L22.7,0.6l0.2,0.2H23l-0.2-0.2c0.1,0,0.1-0.1,0.1-0.1c0-0.1-0.1-0.2-0.2-0.2h-0.2v0.5h0.1
		C22.7,0.8,22.7,0.6,22.7,0.6z M22.7,0.3h0.1c0.1,0,0.1,0,0.1,0.1c0,0.1-0.1,0.1-0.1,0.1h-0.1V0.3z"/>
	<path fill="#454546" d="M22.8,1c0.3,0,0.5-0.2,0.5-0.5s-0.2-0.5-0.5-0.5s-0.5,0.2-0.5,0.5S22.5,1,22.8,1z M22.8,0.1
		c0.2,0,0.4,0.2,0.4,0.4c0,0.2-0.2,0.4-0.4,0.4s-0.4-0.2-0.4-0.4S22.6,0.1,22.8,0.1z"/>
	<path fill="#454546" d="M8.2,11.5c0.6,0.1,1.1-0.3,1.5-0.7c0.5-0.7,0.8-1.6,1-2.5l0-0.1c0,0,0.1-0.3,0.1-0.4c0-0.2,0.1-0.4,0.2-0.4
		c0.1,0,0.2,0.1,0.3,0.1h0.1c0.1,0,0.1,0.1,0.1,0.1c0,0.1-0.1,0.3-0.2,0.5l0,0.1c-0.1,0.2-0.1,0.5-0.2,0.7c-0.1,0.3-0.1,0.7,0.1,1
		c0.1,0.1,0.3,0.2,0.5,0.2c0.6-0.1,1.1-0.6,1.4-1.1c0-0.1,0.1-0.1,0.1-0.1c0.2,0.1,0.5,0.2,0.8,0.2c0.6,0.1,1.2-0.2,1.5-0.7
		c0.4-0.6,0.1-1.4-0.3-2C15,6,14.5,5.8,14.3,5.3c0-0.1,0-0.1,0-0.2V5.1c0-0.2,0.1-0.3,0.3-0.3c0.1,0,0.2,0.1,0.3,0.2
		c0,0,0.3,0.4,0.3,0.5c0.1,0,0.1,0,0.2-0.1l0.3-0.6c0-0.1,0-0.2-0.1-0.2c-0.3-0.2-0.6-0.3-1-0.3c-0.5,0-1,0.4-1.3,0.9
		c-0.3,0.7,0.1,1.4,0.5,1.9c0.3,0.4,0.8,0.7,0.9,1.2c0,0.1,0,0.2-0.1,0.3c-0.1,0.1-0.2,0.2-0.3,0.2c-0.2-0.1-0.4-0.2-0.5-0.3
		c-0.1-0.1-0.2-0.2-0.2-0.3c-0.1-0.2-0.2-0.3-0.2-0.3c-0.1,0-0.1,0.1-0.1,0.1c0,0.1-0.1,0.3-0.3,0.5l-0.1,0
		c-0.1,0.1-0.2,0.1-0.3,0.2c-0.2,0.1-0.4,0-0.5-0.2c-0.2-0.2-0.1-0.5-0.1-0.7c0-0.3,0.2-0.6,0.3-0.8l0,0l0.1-0.4c0,0,0-0.1-0.1-0.1
		c-0.1,0-0.1,0.1-0.2,0.1l0,0c-0.1,0-0.3,0-0.4,0l-0.2,0c-0.2-0.1-0.4-0.2-0.5-0.4c-0.3-0.4-0.2-0.5-0.3-0.5c-0.1,0-0.1,0.1-0.1,0.2
		c0,0.2,0,0.3-0.1,0.4c0,0.1-0.1,0.6-0.1,0.6l0,0.1c-0.2,1.2-0.5,2.3-1,3.4c-0.1,0.2-0.3,0.4-0.5,0.4c-0.2,0-0.4-0.2-0.5-0.3
		C8.5,10.2,8.4,10,8.5,9.8C8.9,9.5,9.2,9.2,9.6,9l0,0c0,0,0.1-0.1,0.1-0.1C9.9,8.7,10,8.7,10,8.4V8.2C10,8,9.8,7.7,9.8,7.7
		C9.7,7.5,9.6,7.5,9.6,7.4C9.4,7.2,9.2,7.2,9,7.2C8.4,7.3,8,7.7,7.6,8.2C7.2,8.9,7,9.9,7.3,10.8C7.4,11.1,7.8,11.4,8.2,11.5z
		 M8.3,8.6L8.3,8.6C8.4,8,8.5,7.8,8.6,7.8h0c0.2,0,0.3,0.5,0.3,0.7v0.1c0,0.1,0,0.2,0,0.3C8.8,9.1,8.6,9.3,8.4,9.4
		c-0.2,0-0.1-0.3-0.2-0.5C8.3,8.8,8.3,8.7,8.3,8.6z"/>
	<path fill="#454546" d="M23.4,5.7c-0.1-0.3-0.6-0.4-1.1-0.1c-0.1,0.1-0.3,0.1-0.4,0.2l0,0C21.6,5.9,21.4,6,21,6
		c-0.2-0.1-0.3-0.3-0.3-0.5c0-0.5,0-0.9,0-1.3c0.1-0.5,0.6-0.8,0.9-1.2c0.4-0.7,0.6-1.7,0.3-2.4c-0.1-0.2-0.4-0.4-0.6-0.5
		c-0.4-0.1-0.8,0.1-1.1,0.5c-0.4,0.5-0.5,1.2-0.6,1.8c-0.1,1.3-0.1,2.6,0,3.9c0,0.1,0,0.3,0.1,0.4c0.1,0.2,0.4,0.2,0.6,0.2
		c0.5-0.1,0.9-0.4,1.4-0.7C22,6,22.2,5.8,22.5,5.7l0,0c0.2-0.1,0.4,0,0.5,0.1c0.1,0.1-0.1,0.3-0.3,0.4l-0.6,0.3l-3.9,1.7l-8.1,3.5
		l-2.4,1.1c-0.1,0-0.2,0-0.2,0.1c0,0,0.1,0.1,0.1,0.1c0.9-0.1,1.7-0.2,2.6-0.2l3.3-1.7l1-0.5l8.3-4.2c0,0,0.3-0.2,0.3-0.2
		C23.4,6,23.4,5.8,23.4,5.7z M20.7,0.9L20.7,0.9c0-0.3,0.1-0.5,0.3-0.5s0.3,0.2,0.3,0.5v0c0.1,0.4,0,0.8,0,1.1
		c-0.1,0.4-0.2,0.8-0.4,1.2c-0.1,0.1-0.1,0.1-0.2,0.1s-0.1,0-0.1-0.1C20.7,2.4,20.6,1.6,20.7,0.9z"/>
	<path fill="#454546" d="M4.4,9.9c0.1,0,0.1-0.1,0.1-0.1C3.8,9,3.6,7.9,3.9,6.9c0.2-0.9,1-2,2-2.1c0.5-0.1,1,0,1.4,0.4
		C7.7,5.7,7.7,6.4,7.5,7c0,0.1,0.1,0.1,0.1,0.1c0.5-0.1,1.1-0.5,1.2-1C9,5.6,8.8,5.2,8.4,4.9C8.1,4.7,7.9,4.6,7.5,4.5
		C6.2,4.2,4.9,4.7,3.9,5.6C3.3,6.2,2.7,6.9,2.6,7.7c-0.1,0.6,0,1.1,0.3,1.6C3.2,9.8,3.8,10,4.4,9.9z"/>
	<path fill="#454546" d="M6.4,5.8C5.3,6.7,5,8.1,5.1,9.5l0.2,2c0,0.3,0,0.6-0.1,0.8c0,0-0.1,0.2-0.4,0.2c-0.2,0-0.4-0.2-0.4-0.2
		c-0.4-0.3-0.5-0.8-0.7-1.3c-0.2-0.2-0.3,0-0.3,0c-0.2,0.2-0.4,0.5-0.5,0.7c0,0.3,0.3,0.5,0.4,0.7c0.5,0.4,1.3,0.5,1.8,0.2
		c1.3-0.8,1.5-2.3,1.6-3.7c0.1-1-0.3-2.1,0.1-3c0-0.2,0.1-0.3,0.2-0.5h0C6.7,5.6,6.6,5.7,6.4,5.8z"/>
</g>
</svg>
