<?xml version="1.0" encoding="UTF-8" standalone="no"?>
<svg width="117px" height="40px" viewBox="0 0 117 40" version="1.1" xmlns="http://www.w3.org/2000/svg" xmlns:xlink="http://www.w3.org/1999/xlink" xmlns:sketch="http://www.bohemiancoding.com/sketch/ns">
    <!-- Generator: Sketch 3.3.2 (12043) - http://www.bohemiancoding.com/sketch -->
    <title>Slice 1</title>
    <desc>Created with Sketch.</desc>
    <defs>
        <path id="path-1" d="M0.06,0.139 L116.145,0.139 L116.145,40 L0.06,40"></path>
    </defs>
    <g id="Page-1" stroke="none" stroke-width="1" fill="none" fill-rule="evenodd" sketch:type="MSPage">
        <g id="coady" sketch:type="MSLayerGroup">
            <path d="M100.277,0.139 L95.078,0.139 L102.548,20.069 L95.078,40 L100.277,40 L107.633,20.069 L100.277,0.139" id="Fill-1" fill="#1A1918" sketch:type="MSShapeGroup"></path>
            <path d="M29.107,34.738 C28.747,34.738 28.508,34.621 28.27,34.386 L24.864,30.978 C24.626,30.735 24.505,30.439 24.505,30.14 L24.505,10.001 C24.505,9.7 24.626,9.403 24.864,9.166 L28.27,5.759 C28.508,5.519 28.747,5.398 29.107,5.398 L30.129,5.398 L30.129,0.139 L28.212,0.139 C27.074,0.139 26.061,0.558 25.225,1.395 L20.32,6.294 C19.487,7.13 19.069,8.147 19.069,9.282 L19.069,30.857 C19.069,31.99 19.487,33.006 20.32,33.845 L25.225,38.744 C26.061,39.58 27.074,40 28.212,40 L30.129,40 L30.129,34.738 L29.107,34.738" id="Fill-2" fill="#1A1918" sketch:type="MSShapeGroup"></path>
            <g id="Group-6">
                <mask id="mask-2" sketch:name="Clip 4" fill="white">
                    <use xlink:href="#path-1"></use>
                </mask>
                <g id="Clip-4"></g>
                <path d="M33.928,34.738 C34.288,34.738 34.527,34.621 34.765,34.386 L38.171,30.978 C38.41,30.735 38.53,30.439 38.53,30.14 L38.53,10.001 C38.53,9.7 38.41,9.403 38.171,9.166 L34.765,5.759 C34.527,5.519 34.288,5.398 33.928,5.398 L32.906,5.398 L32.906,0.139 L34.823,0.139 C35.962,0.139 36.974,0.558 37.81,1.395 L42.715,6.294 C43.546,7.13 43.965,8.147 43.965,9.282 L43.965,30.857 C43.965,31.99 43.546,33.006 42.715,33.845 L37.81,38.744 C36.974,39.58 35.962,40 34.823,40 L32.906,40 L32.906,34.738 L33.928,34.738" id="Fill-3" fill="#1A1918" sketch:type="MSShapeGroup" mask="url(#mask-2)"></path>
                <path d="M10.039,34.738 C9.679,34.738 9.44,34.621 9.202,34.386 L5.796,30.978 C5.558,30.735 5.435,30.439 5.435,30.14 L5.435,10.001 C5.435,9.7 5.558,9.403 5.796,9.166 L9.202,5.759 C9.44,5.519 9.679,5.398 10.039,5.398 L12.37,5.398 L12.37,0.139 L9.143,0.139 C8.004,0.139 6.992,0.558 6.156,1.395 L1.251,6.294 C0.419,7.13 0,8.147 0,9.282 L0,30.857 C0,31.99 0.419,33.006 1.251,33.845 L6.156,38.744 C6.992,39.58 8.004,40 9.143,40 L12.37,40 L12.37,34.738 L10.039,34.738" id="Fill-5" fill="#1A1918" sketch:type="MSShapeGroup" mask="url(#mask-2)"></path>
            </g>
            <path d="M111.33,0.139 L109.042,5.908 L113.966,5.908 L116.145,0.139 L111.33,0.139" id="Fill-7" fill="#1A1918" sketch:type="MSShapeGroup"></path>
            <path d="M53.873,40 L48.793,40 L58.406,0.139 L63.373,0.139 L53.873,40" id="Fill-8" fill="#1A1918" sketch:type="MSShapeGroup"></path>
            <path d="M65.527,35.279 L70.248,35.279 L70.248,40 L65.527,40 L65.527,35.279 Z" id="Fill-9" fill="#1A1918" sketch:type="MSShapeGroup"></path>
            <path d="M87.994,36.412 L87.994,3.721 C87.994,0.668 86.336,0.139 85.18,0.139 L75.019,0.139 L75.019,4.801 L82.916,4.801 L82.916,35.279 L75.019,35.279 L75.019,40 L85.098,40 C86.268,40 87.994,39.537 87.994,36.412" id="Fill-10" fill="#1A1918" sketch:type="MSShapeGroup"></path>
        </g>
    </g>
</svg>